# xmcd
#
# Track frame offsets:
# 150
# 15963
# 31776
#
# Disc length: 633 seconds
#
#
# Revision: 5
# Processed by: cddbd v1.5.2PL0 Copyright (c) Steve Scherf et al.
# Submitted via: FreeRIP 2.944 
#
DISCID=10027703
DTITLE=Jack Ingram - Barefoot and Crazy
DYEAR=2009
DGENRE=Country
TTITLE0=Barefoot And Crazy
TTITLE1=Barefoot And Crazy
TTITLE2=Barefoot And Crazy (Double Dog Dare Ya Mix)
EXTD=
EXTT0=
EXTT1=
EXTT2=
PLAYORDER=
